# xmcd
#
# Track frame offsets:
#	182
#	14987
#	38232
#	61045
#
# Disc length: 1029 seconds
#
# Revision: 1
# Processed by: cddbd v1.5.1PL0 Copyright (c) Steve Scherf et al.
# Submitted via: audiograbber 1.83.01
#
DISCID=2f040304
DTITLE=T Seven - Hey Mr. President [CD-Single)
DYEAR=2001
DGENRE=
TTITLE0=Hey Mr. President (Radio Version)
TTITLE1=Hey Mr. President (Extended Version)
TTITLE2=Hey Mr. President (Rüegsegger # Wittwer Remix)
TTITLE3=Addicted To You
EXTD=
EXTT0=
EXTT1=
EXTT2=
EXTT3=
PLAYORDER=
